<?xml version="1.0" encoding="UTF-8"?>
<svg width="36px" height="36px" viewBox="0 0 36 36" version="1.1" xmlns="http://www.w3.org/2000/svg" xmlns:xlink="http://www.w3.org/1999/xlink">
    <!-- Generator: Sketch 52.3 (67297) - http://www.bohemiancoding.com/sketch -->
    <title>ico_已勾选</title>
    <desc>Created with Sketch.</desc>
    <g id="Page-1" stroke="none" stroke-width="1" fill="none" fill-rule="evenodd">
        <g id="5文件记录-编辑" transform="translate(-210.000000, -237.000000)">
            <g id="Middle" transform="translate(0.000000, 40.000000)">
                <g id="1">
                    <g id="分组-3" transform="translate(0.000000, 51.000000)">
                        <g id="01" transform="translate(30.000000, 16.000000)">
                            <g id="遮罩">
                                <g id="ico_已勾选" transform="translate(180.000000, 130.000000)">
                                    <g>
                                        <path d="M36,18.2222222 C36,8.05866667 27.9413333,0 17.7777778,0 C8.05866667,0 0,8.05866667 0,18.2222222 C0,27.9413333 8.05866667,36 17.7777778,36 C27.9413333,36 36,27.9413333 36,18.2222222 Z" id="Fill-" fill="#10B7F5"></path>
                                        <path d="M9.0135597,18.9052551 C8.62600857,18.5063113 8.5768745,17.8242063 8.9106263,17.3725136 L8.76335882,17.5718223 C9.09406141,17.1242564 9.71769253,17.032474 10.159054,17.368937 L13.7379886,20.0972652 C14.1781072,20.4327807 14.88501,20.4146598 15.312511,20.060428 L25.8931868,11.2931705 C26.3226529,10.9373104 26.9916395,10.9639845 27.3887911,11.3541053 L27.0031295,10.9752711 C27.3996628,11.3647846 27.3951536,11.9996224 27.0121471,12.3745352 L15.2434766,23.8945123 C14.8519236,24.277791 14.2173691,24.262039 13.8327838,23.8661482 L9.0135597,18.9052551 Z" id="ico_已勾选_1" fill="#FFFFFF"></path>
                                    </g>
                                </g>
                            </g>
                        </g>
                    </g>
                </g>
            </g>
        </g>
    </g>
</svg>